<svg width="21" height="20" viewBox="0 0 21 20" fill="none" xmlns="http://www.w3.org/2000/svg">
<path d="M20.3989 10.2102C20.3989 9.44107 19.7753 8.81756 19.0062 8.81756H12.0429V1.85427C12.0429 1.08512 11.4194 0.461609 10.6503 0.461609C9.88111 0.461609 9.25759 1.08512 9.25759 1.85427V8.81756H2.2943C1.52516 8.81756 0.901642 9.44107 0.901642 10.2102C0.901642 10.9794 1.52516 11.6029 2.2943 11.6029H9.25759V18.5662C9.25759 19.3353 9.88111 19.9588 10.6503 19.9588C11.4194 19.9588 12.0429 19.3353 12.0429 18.5662V11.6029H19.0062C19.7753 11.6029 20.3989 10.9794 20.3989 10.2102Z"/>
</svg>
