<svg width="19" height="19" viewBox="0 0 19 19" fill="none" xmlns="http://www.w3.org/2000/svg">
<g clip-path="url(#clip0_324_136)">
<path d="M15.124 11.0023C14.9267 11.1935 14.8361 11.4699 14.881 11.7411L15.5581 15.4882C15.6152 15.8058 15.4812 16.1272 15.2154 16.3108C14.9549 16.5012 14.6084 16.524 14.3243 16.3717L10.9511 14.6124C10.8338 14.5499 10.7036 14.5164 10.5703 14.5126H10.3639C10.2923 14.5233 10.2222 14.5461 10.1583 14.5812L6.78434 16.3489C6.61755 16.4326 6.42867 16.4623 6.2436 16.4326C5.79273 16.3473 5.49189 15.9178 5.56577 15.4646L6.2436 11.7175C6.28853 11.4441 6.1979 11.1661 6.00065 10.9718L3.25047 8.30619C3.02047 8.08303 2.9405 7.74792 3.0456 7.44556C3.14766 7.14396 3.40813 6.92385 3.72267 6.87435L7.50787 6.32522C7.79576 6.29552 8.04861 6.12035 8.17809 5.8614L9.84601 2.44174C9.88561 2.36558 9.93664 2.29551 9.99833 2.2361L10.0669 2.18279C10.1027 2.14318 10.1438 2.11043 10.1895 2.08378L10.2725 2.05331L10.402 2H10.7226C11.009 2.0297 11.2611 2.20107 11.3928 2.45697L13.0829 5.8614C13.2047 6.11045 13.4416 6.28333 13.715 6.32522L17.5002 6.87435C17.8201 6.92005 18.0874 7.14091 18.1932 7.44556C18.293 7.75097 18.207 8.08608 17.9724 8.30619L15.124 11.0023Z" fill="#F6B76F"/>
</g>
<defs>
<clipPath id="clip0_324_136">
<rect width="18.2786" height="18.2788" fill="white" transform="translate(0.0585938 0.00299072)"/>
</clipPath>
</defs>
</svg>
