<?xml version="1.0" encoding="utf-8"?><svg viewBox="0 0 502.66 502.66" xmlns="http://www.w3.org/2000/svg" xmlns:xlink="http://www.w3.org/1999/xlink"><style>:root>svg{display:none}:root>svg:target{display:block}</style><svg viewBox="0 0 112 56" id="Union" xmlns="http://www.w3.org/2000/svg"><g filter="url(#aa)"><mask id="aa"><path fill-rule="evenodd" clip-rule="evenodd" d="M24 0C10.745 0 0 10.745 0 24s10.745 24 24 24h16.917a9.138 9.138 0 017.541 3.978c3.63 5.304 11.455 5.304 15.084 0A9.138 9.138 0 0171.082 48H88c13.255 0 24-10.745 24-24S101.255 0 88 0H24z"/></mask><path fill-rule="evenodd" clip-rule="evenodd" d="M24 0C10.745 0 0 10.745 0 24s10.745 24 24 24h16.917a9.138 9.138 0 017.541 3.978c3.63 5.304 11.455 5.304 15.084 0A9.138 9.138 0 0171.082 48H88c13.255 0 24-10.745 24-24S101.255 0 88 0H24z" fill-opacity=".2"/><path d="M.862 24C.862 11.221 11.22.862 24 .862V-.862C10.27-.862-.862 10.27-.862 24H.862zM24 47.139C11.221 47.139.862 36.779.862 24H-.862C-.862 37.73 10.27 48.861 24 48.861V47.14zm16.917 0H24v1.722h16.917V47.14zm47.083 0H71.083v1.722H88V47.14zM111.138 24c0 12.779-10.359 23.139-23.138 23.139v1.722c13.731 0 24.862-11.13 24.862-24.861h-1.724zM88 .862c12.779 0 23.138 10.359 23.138 23.138h1.724C112.862 10.27 101.731-.862 88-.862V.862zm-64 0h64V-.862H24V.862zm40.252 51.602a8.277 8.277 0 016.831-3.602v-1.724a10 10 0 00-8.252 4.353l1.421.973zm-16.504 0c3.97 5.804 12.534 5.804 16.505 0l-1.422-.973c-3.287 4.804-10.375 4.804-13.662 0l-1.421.973zm-6.831-3.602a8.277 8.277 0 016.83 3.602l1.422-.973a10 10 0 00-8.252-4.352v1.722z" fill-opacity=".6" mask="url(#aa)"/></g><defs><filter id="aa" x="-8" y="-8" width="128" height="71.956" filterUnits="userSpaceOnUse" color-interpolation-filters="sRGB"><feFlood flood-opacity="0" result="BackgroundImageFix"/><feGaussianBlur in="BackgroundImageFix" stdDeviation="4"/><feComposite in2="SourceAlpha" operator="in" result="effect1_backgroundBlur_324_42"/><feBlend in="SourceGraphic" in2="effect1_backgroundBlur_324_42" result="shape"/></filter></defs></svg><svg viewBox="0 0 10 7" id="arrow-down" xmlns="http://www.w3.org/2000/svg"><path d="M0 1.496c0 .128.023.254.069.37a.853.853 0 00.195.298L4.55 6.305a.646.646 0 00.453.195.646.646 0 00.454-.195l4.285-4.287a.922.922 0 00.255-.58.979.979 0 00-.162-.628.688.688 0 00-.484-.306.638.638 0 00-.523.194L5 4.53 1.17.827A.662.662 0 00.803.635a.61.61 0 00-.396.076.777.777 0 00-.299.32.99.99 0 00-.108.465z"/></svg><svg viewBox="0 0 48 24" id="arrow-right" xmlns="http://www.w3.org/2000/svg"><path d="M4.5 12.4H42m0 0S37.512 9.45 36.6 7m5.4 5.4s-3.968 2.774-5.4 5.4"/></svg><svg viewBox="0 0 10 8" id="checkbox" xmlns="http://www.w3.org/2000/svg"><path d="M8.341.591a.844.844 0 011.204 1.182L5.056 7.386a.844.844 0 01-1.215.023L.864 4.432A.844.844 0 112.057 3.24l2.355 2.354L8.32.616a.302.302 0 01.022-.025h-.001z"/></svg><svg viewBox="0 0 10 7" id="dropdown" xmlns="http://www.w3.org/2000/svg"><path d="M0 1.496c0 .128.023.254.069.37a.853.853 0 00.195.298L4.55 6.305a.646.646 0 00.453.195.646.646 0 00.454-.195l4.285-4.287a.922.922 0 00.255-.58.979.979 0 00-.162-.628.688.688 0 00-.484-.306.638.638 0 00-.523.194L5 4.53 1.17.827A.662.662 0 00.803.635a.61.61 0 00-.396.076.777.777 0 00-.299.32.99.99 0 00-.108.465z"/></svg><svg viewBox="0 0 502.664 502.664" id="icon" xmlns="http://www.w3.org/2000/svg"><path d="M153.821 358.226L0 274.337v-46.463l153.821-83.414v54.574L46.636 250.523l107.185 53.431v54.272zm26.273 29.358L282.103 115.08h32.227L212.084 387.584h-31.99zm168.749-29.358v-54.272l107.164-52.999-107.164-52.59v-53.927l153.821 83.522v46.183l-153.821 84.083z"/></svg><svg viewBox="0 0 21 20" id="plus" xmlns="http://www.w3.org/2000/svg"><path d="M20.399 10.21c0-.769-.624-1.392-1.393-1.392h-6.963V1.854a1.393 1.393 0 10-2.785 0v6.964H2.294a1.393 1.393 0 100 2.785h6.964v6.963a1.393 1.393 0 002.785 0v-6.963h6.963c.77 0 1.393-.624 1.393-1.393z"/></svg><svg viewBox="0 0 17 17" id="search" xmlns="http://www.w3.org/2000/svg"><path d="M15.75 15.75l-3.364-3.37m1.864-4.505a6.375 6.375 0 11-12.75 0 6.375 6.375 0 0112.75 0z"/></svg><svg viewBox="0 0 10 8" id="sheckbox" xmlns="http://www.w3.org/2000/svg"><path d="M8.341.591a.844.844 0 011.204 1.182L5.056 7.386a.844.844 0 01-1.215.023L.864 4.432A.844.844 0 112.057 3.24l2.355 2.354L8.32.616a.302.302 0 01.022-.025h-.001z"/></svg><svg viewBox="0 0 21 15" id="slider-left" xmlns="http://www.w3.org/2000/svg"><path d="M19.696 7.435H2.486m0 0s4.878-3.208 5.87-5.87m-5.87 5.87s4.312 3.015 5.87 5.87"/></svg><svg viewBox="0 0 21 15" id="slider-right" xmlns="http://www.w3.org/2000/svg"><path d="M1.304 7.435h17.21m0 0s-4.878-3.208-5.87-5.87m5.87 5.87s-4.312 3.015-5.87 5.87"/></svg><svg viewBox="0 0 19 19" id="star" xmlns="http://www.w3.org/2000/svg"><g clip-path="url(#la)"><path d="M15.124 11.002a.838.838 0 00-.243.74l.677 3.746a.823.823 0 01-.343.823.839.839 0 01-.89.06l-3.374-1.759a.86.86 0 00-.38-.1h-.207a.617.617 0 00-.206.07l-3.374 1.767c-.166.084-.355.113-.54.084a.847.847 0 01-.678-.968l.678-3.748A.853.853 0 006 10.973L3.25 8.306a.822.822 0 01-.205-.86.855.855 0 01.677-.572l3.785-.549a.847.847 0 00.67-.464l1.668-3.42a.793.793 0 01.152-.205l.069-.053a.51.51 0 01.123-.1l.083-.03.129-.053h.32c.287.03.54.201.67.457l1.69 3.404c.123.25.36.422.633.464l3.785.55c.32.045.587.266.693.57.1.306.014.641-.22.861l-2.849 2.696z"/></g><defs><clipPath id="la"><path transform="translate(.059 .003)" d="M0 0h18.279v18.279H0z"/></clipPath></defs></svg><svg viewBox="0 0 19 19" id="star-off" xmlns="http://www.w3.org/2000/svg"><path d="M14.358 10.91a.838.838 0 00-.243.738l.678 3.747a.823.823 0 01-.343.823.839.839 0 01-.891.06l-3.373-1.759a.86.86 0 00-.381-.1h-.207a.618.618 0 00-.205.069l-3.374 1.768a.894.894 0 01-.541.083.847.847 0 01-.678-.968l.678-3.747a.852.852 0 00-.243-.745l-2.75-2.666a.822.822 0 01-.205-.86.855.855 0 01.677-.572l3.785-.549a.847.847 0 00.67-.464l1.668-3.42a.793.793 0 01.153-.205L9.3 2.09a.511.511 0 01.123-.1l.083-.03.13-.053h.32c.286.03.538.2.67.457l1.69 3.404a.846.846 0 00.632.464l3.786.55c.32.045.587.266.693.57.1.306.013.64-.221.861l-2.849 2.696z" fill-opacity=".5"/></svg></svg>